<svg width="53" height="53" viewBox="0 0 53 53" fill="none" xmlns="http://www.w3.org/2000/svg">
<path fill-rule="evenodd" clip-rule="evenodd" d="M26.5 6.625C21.2288 6.625 16.1735 8.71897 12.4463 12.4463C8.71897 16.1735 6.625 21.2288 6.625 26.5C6.625 31.7712 8.71897 36.8265 12.4463 40.5537C16.1735 44.281 21.2288 46.375 26.5 46.375H36.4375C39.5247 46.375 41.0684 46.375 42.2852 45.8715C43.0892 45.5386 43.8198 45.0505 44.4351 44.4351C45.0505 43.8198 45.5386 43.0892 45.8715 42.2852C46.375 41.0684 46.375 39.5247 46.375 36.4375V26.5C46.375 21.2288 44.281 16.1735 40.5537 12.4463C36.8265 8.71897 31.7712 6.625 26.5 6.625ZM17.6667 24.2917C17.6667 23.706 17.8993 23.1443 18.3135 22.7301C18.7276 22.316 19.2893 22.0833 19.875 22.0833H33.125C33.7107 22.0833 34.2724 22.316 34.6865 22.7301C35.1007 23.1443 35.3333 23.706 35.3333 24.2917C35.3333 24.8774 35.1007 25.4391 34.6865 25.8532C34.2724 26.2673 33.7107 26.5 33.125 26.5H19.875C19.2893 26.5 18.7276 26.2673 18.3135 25.8532C17.8993 25.4391 17.6667 24.8774 17.6667 24.2917ZM24.2917 33.125C24.2917 32.5393 24.5243 31.9776 24.9385 31.5635C25.3526 31.1493 25.9143 30.9167 26.5 30.9167H33.125C33.7107 30.9167 34.2724 31.1493 34.6865 31.5635C35.1007 31.9776 35.3333 32.5393 35.3333 33.125C35.3333 33.7107 35.1007 34.2724 34.6865 34.6865C34.2724 35.1007 33.7107 35.3333 33.125 35.3333H26.5C25.9143 35.3333 25.3526 35.1007 24.9385 34.6865C24.5243 34.2724 24.2917 33.7107 24.2917 33.125Z" fill="white"/>
</svg>
