<svg width="53" height="53" viewBox="0 0 53 53" fill="none" xmlns="http://www.w3.org/2000/svg">
<path d="M44.0668 12.2406C39.4956 7.69679 33.3375 5.10729 26.8928 5.01894C20.4481 4.93059 14.2214 7.3503 9.52739 11.7671C4.83341 16.1839 2.03966 22.2521 1.73609 28.6902C1.43253 35.1284 3.6429 41.4325 7.90046 46.2714L7.9191 46.2921C7.95326 46.3283 7.98535 46.3656 8.02261 46.4008C8.09921 46.4877 8.18617 46.5861 8.28865 46.6886C8.69055 47.1157 9.1763 47.4554 9.7155 47.6862C10.2547 47.917 10.8357 48.034 11.4222 48.0299C12.0087 48.0258 12.5881 47.9007 13.124 47.6624C13.66 47.4242 14.1409 47.0778 14.5368 46.6451C16.0602 44.9894 17.9106 43.6678 19.9708 42.7638C22.0311 41.8598 24.2565 41.393 26.5064 41.393C28.7562 41.393 30.9816 41.8598 33.0419 42.7638C35.1022 43.6678 36.9525 44.9894 38.4759 46.6451C38.8747 47.0801 39.3596 47.4275 39.8997 47.6654C40.4398 47.9033 41.0234 48.0264 41.6136 48.027C42.2038 48.0276 42.7877 47.9056 43.3283 47.6688C43.8689 47.432 44.3544 47.0855 44.7541 46.6513L45.0864 46.289L45.105 46.2683C49.3 41.5313 51.5289 35.3717 51.3365 29.0471C51.1441 22.7225 48.545 16.7098 44.0699 12.2365L44.0668 12.2406ZM24.8439 13.2499C24.8439 12.8106 25.0184 12.3894 25.329 12.0788C25.6396 11.7682 26.0609 11.5937 26.5002 11.5937C26.9394 11.5937 27.3607 11.7682 27.6713 12.0788C27.9819 12.3894 28.1564 12.8106 28.1564 13.2499V16.5624C28.1564 17.0017 27.9819 17.4229 27.6713 17.7335C27.3607 18.0442 26.9394 18.2187 26.5002 18.2187C26.0609 18.2187 25.6396 18.0442 25.329 17.7335C25.0184 17.4229 24.8439 17.0017 24.8439 16.5624V13.2499ZM13.2502 31.4687H9.93765C9.49839 31.4687 9.07711 31.2942 8.76651 30.9835C8.4559 30.6729 8.2814 30.2517 8.2814 29.8124C8.2814 29.3731 8.4559 28.9519 8.76651 28.6413C9.07711 28.3306 9.49839 28.1562 9.93765 28.1562H13.2502C13.6894 28.1562 14.1107 28.3306 14.4213 28.6413C14.7319 28.9519 14.9064 29.3731 14.9064 29.8124C14.9064 30.2517 14.7319 30.6729 14.4213 30.9835C14.1107 31.2942 13.6894 31.4687 13.2502 31.4687ZM18.3017 21.614C17.9911 21.9243 17.57 22.0987 17.131 22.0987C16.6919 22.0987 16.2708 21.9243 15.9602 21.614L13.6176 19.2724C13.307 18.9618 13.1325 18.5405 13.1325 18.1012C13.1325 17.6618 13.307 17.2405 13.6176 16.9299C13.9283 16.6192 14.3496 16.4447 14.7889 16.4447C15.2282 16.4447 15.6495 16.6192 15.9602 16.9299L18.3017 19.2724C18.6121 19.583 18.7864 20.0041 18.7864 20.4432C18.7864 20.8823 18.6121 21.3034 18.3017 21.614ZM33.7566 24.0052L28.8396 31.8206C28.6384 32.0994 28.3938 32.3441 28.115 32.5452C27.442 33.0147 26.6109 33.1999 25.8022 33.0605C24.9935 32.9211 24.2724 32.4684 23.7954 31.8006C23.3184 31.1328 23.124 30.3038 23.2544 29.4936C23.3848 28.6834 23.8295 27.9573 24.4919 27.4729L32.3074 22.556C32.485 22.4321 32.6964 22.3657 32.9129 22.3657C33.1295 22.3657 33.3409 22.4321 33.5185 22.556C33.7416 22.717 33.8919 22.9599 33.9365 23.2314C33.9811 23.503 33.9165 23.7812 33.7566 24.0052ZM37.0401 21.614C36.727 21.9115 36.31 22.0749 35.8781 22.0693C35.4462 22.0638 35.0336 21.8898 34.7282 21.5844C34.4228 21.2789 34.2488 20.8663 34.2432 20.4344C34.2377 20.0025 34.4011 19.5856 34.6986 19.2724L37.0401 16.9299C37.3508 16.6192 37.7721 16.4447 38.2114 16.4447C38.6507 16.4447 39.072 16.6192 39.3827 16.9299C39.6933 17.2405 39.8678 17.6618 39.8678 18.1012C39.8678 18.5405 39.6933 18.9618 39.3827 19.2724L37.0401 21.614ZM43.0627 31.4687H39.7502C39.3109 31.4687 38.8896 31.2942 38.579 30.9835C38.2684 30.6729 38.0939 30.2517 38.0939 29.8124C38.0939 29.3731 38.2684 28.9519 38.579 28.6413C38.8896 28.3306 39.3109 28.1562 39.7502 28.1562H43.0627C43.5019 28.1562 43.9232 28.3306 44.2338 28.6413C44.5444 28.9519 44.7189 29.3731 44.7189 29.8124C44.7189 30.2517 44.5444 30.6729 44.2338 30.9835C43.9232 31.2942 43.5019 31.4687 43.0627 31.4687Z" fill="white"/>
</svg>
