<svg width="53" height="53" viewBox="0 0 53 53" fill="none" xmlns="http://www.w3.org/2000/svg">
<path d="M24.2915 13.2503H30.9165L38.182 5.96279C38.3872 5.75581 38.6315 5.59152 38.9006 5.47941C39.1697 5.36729 39.4583 5.30957 39.7499 5.30957C40.0414 5.30957 40.33 5.36729 40.5991 5.47941C40.8682 5.59152 41.1125 5.75581 41.3178 5.96279L47.0153 11.6824C47.4266 12.0961 47.6575 12.6558 47.6575 13.2392C47.6575 13.8227 47.4266 14.3824 47.0153 14.7961L41.9582 19.8753H24.2915V24.292C24.2915 24.8776 24.0589 25.4393 23.6447 25.8535C23.2306 26.2676 22.6689 26.5003 22.0832 26.5003C21.4975 26.5003 20.9358 26.2676 20.5217 25.8535C20.1075 25.4393 19.8749 24.8776 19.8749 24.292V17.667C19.8749 16.4956 20.3402 15.3722 21.1685 14.5439C21.9968 13.7156 23.1202 13.2503 24.2915 13.2503ZM11.0415 24.292V33.1253L5.98445 38.1824C5.57315 38.5961 5.34229 39.1558 5.34229 39.7393C5.34229 40.3227 5.57315 40.8824 5.98445 41.2961L11.682 47.0157C11.8872 47.2227 12.1315 47.387 12.4006 47.4991C12.6697 47.6112 12.9583 47.6689 13.2499 47.6689C13.5414 47.6689 13.83 47.6112 14.0991 47.4991C14.3682 47.387 14.6125 47.2227 14.8178 47.0157L24.2915 37.542H33.1249C33.7106 37.542 34.2723 37.3093 34.6864 36.8952C35.1005 36.481 35.3332 35.9193 35.3332 35.3336V33.1253H37.5415C38.1272 33.1253 38.6889 32.8926 39.1031 32.4785C39.5172 32.0643 39.7499 31.5026 39.7499 30.917V28.7086H41.9582C42.5439 28.7086 43.1056 28.476 43.5197 28.0618C43.9339 27.6477 44.1665 27.086 44.1665 26.5003V24.292H28.7082V26.5003C28.7082 27.6717 28.2429 28.7951 27.4146 29.6233C26.5863 30.4516 25.4629 30.917 24.2915 30.917H19.8749C18.7035 30.917 17.5801 30.4516 16.7518 29.6233C15.9235 28.7951 15.4582 27.6717 15.4582 26.5003V19.8753L11.0415 24.292Z" fill="white"/>
</svg>
