<svg width="53" height="53" viewBox="0 0 53 53" fill="none" xmlns="http://www.w3.org/2000/svg">
<path fill-rule="evenodd" clip-rule="evenodd" d="M31.4686 5.52083C31.4686 5.37441 31.4104 5.23399 31.3069 5.13045C31.2033 5.02692 31.0629 4.96875 30.9165 4.96875H15.4582C13.8475 4.96875 12.3029 5.60857 11.164 6.74747C10.0251 7.88636 9.38525 9.43103 9.38525 11.0417V41.9583C9.38525 43.569 10.0251 45.1136 11.164 46.2525C12.3029 47.3914 13.8475 48.0312 15.4582 48.0312H37.5415C39.1521 48.0312 40.6968 47.3914 41.8357 46.2525C42.9746 45.1136 43.6144 43.569 43.6144 41.9583V20.1996C43.6144 20.0532 43.5563 19.9128 43.4527 19.8092C43.3492 19.7057 43.2088 19.6475 43.0623 19.6475H33.1248C32.6856 19.6475 32.2643 19.473 31.9537 19.1624C31.6431 18.8518 31.4686 18.4306 31.4686 17.9913V5.52083ZM33.1248 27.0521C33.5641 27.0521 33.9854 27.2266 34.296 27.5372C34.6066 27.8478 34.7811 28.2691 34.7811 28.7083C34.7811 29.1476 34.6066 29.5689 34.296 29.8795C33.9854 30.1901 33.5641 30.3646 33.1248 30.3646H19.8748C19.4356 30.3646 19.0143 30.1901 18.7037 29.8795C18.3931 29.5689 18.2186 29.1476 18.2186 28.7083C18.2186 28.2691 18.3931 27.8478 18.7037 27.5372C19.0143 27.2266 19.4356 27.0521 19.8748 27.0521H33.1248ZM33.1248 35.8854C33.5641 35.8854 33.9854 36.0599 34.296 36.3705C34.6066 36.6811 34.7811 37.1024 34.7811 37.5417C34.7811 37.9809 34.6066 38.4022 34.296 38.7128C33.9854 39.0234 33.5641 39.1979 33.1248 39.1979H19.8748C19.4356 39.1979 19.0143 39.0234 18.7037 38.7128C18.3931 38.4022 18.2186 37.9809 18.2186 37.5417C18.2186 37.1024 18.3931 36.6811 18.7037 36.3705C19.0143 36.0599 19.4356 35.8854 19.8748 35.8854H33.1248Z" fill="white"/>
<path d="M34.7812 6.23622C34.7812 5.82988 35.2075 5.57151 35.5233 5.82547C35.7912 6.04188 36.029 6.29363 36.2365 6.58072L42.8903 15.8491C43.0404 16.0611 42.877 16.3349 42.6164 16.3349H35.3333C35.1869 16.3349 35.0465 16.2768 34.943 16.1732C34.8394 16.0697 34.7812 15.9293 34.7812 15.7828V6.23622Z" fill="white"/>
</svg>
