<svg width="37" height="36" viewBox="0 0 37 36" fill="none" xmlns="http://www.w3.org/2000/svg">
<g clip-path="url(#clip0_339_1689)">
<path d="M13.8125 0H7.8125C5.82338 0 3.91572 0.790176 2.5092 2.1967C1.10268 3.60322 0.3125 5.51088 0.3125 7.5L0.3125 28.5C0.3125 29.4849 0.506493 30.4602 0.883403 31.3701C1.26031 32.2801 1.81276 33.1069 2.5092 33.8033C3.91572 35.2098 5.82338 36 7.8125 36H21.3125V7.5C21.3125 6.51509 21.1185 5.53982 20.7416 4.62987C20.3647 3.71993 19.8122 2.89314 19.1158 2.1967C18.4194 1.50026 17.5926 0.947814 16.6826 0.570903C15.7727 0.193993 14.7974 0 13.8125 0ZM7.8125 28.5H6.3125C5.91468 28.5 5.53314 28.342 5.25184 28.0607C4.97054 27.7794 4.8125 27.3978 4.8125 27C4.8125 26.6022 4.97054 26.2206 5.25184 25.9393C5.53314 25.658 5.91468 25.5 6.3125 25.5H7.8125C8.21032 25.5 8.59186 25.658 8.87316 25.9393C9.15446 26.2206 9.3125 26.6022 9.3125 27C9.3125 27.3978 9.15446 27.7794 8.87316 28.0607C8.59186 28.342 8.21032 28.5 7.8125 28.5ZM7.8125 22.5H6.3125C5.91468 22.5 5.53314 22.342 5.25184 22.0607C4.97054 21.7794 4.8125 21.3978 4.8125 21C4.8125 20.6022 4.97054 20.2206 5.25184 19.9393C5.53314 19.658 5.91468 19.5 6.3125 19.5H7.8125C8.21032 19.5 8.59186 19.658 8.87316 19.9393C9.15446 20.2206 9.3125 20.6022 9.3125 21C9.3125 21.3978 9.15446 21.7794 8.87316 22.0607C8.59186 22.342 8.21032 22.5 7.8125 22.5ZM7.8125 16.5H6.3125C5.91468 16.5 5.53314 16.342 5.25184 16.0607C4.97054 15.7794 4.8125 15.3978 4.8125 15C4.8125 14.6022 4.97054 14.2206 5.25184 13.9393C5.53314 13.658 5.91468 13.5 6.3125 13.5H7.8125C8.21032 13.5 8.59186 13.658 8.87316 13.9393C9.15446 14.2206 9.3125 14.6022 9.3125 15C9.3125 15.3978 9.15446 15.7794 8.87316 16.0607C8.59186 16.342 8.21032 16.5 7.8125 16.5ZM7.8125 10.5H6.3125C5.91468 10.5 5.53314 10.342 5.25184 10.0607C4.97054 9.77936 4.8125 9.39782 4.8125 9C4.8125 8.60218 4.97054 8.22064 5.25184 7.93934C5.53314 7.65804 5.91468 7.5 6.3125 7.5H7.8125C8.21032 7.5 8.59186 7.65804 8.87316 7.93934C9.15446 8.22064 9.3125 8.60218 9.3125 9C9.3125 9.39782 9.15446 9.77936 8.87316 10.0607C8.59186 10.342 8.21032 10.5 7.8125 10.5ZM15.3125 28.5H13.8125C13.4147 28.5 13.0331 28.342 12.7518 28.0607C12.4705 27.7794 12.3125 27.3978 12.3125 27C12.3125 26.6022 12.4705 26.2206 12.7518 25.9393C13.0331 25.658 13.4147 25.5 13.8125 25.5H15.3125C15.7103 25.5 16.0919 25.658 16.3732 25.9393C16.6545 26.2206 16.8125 26.6022 16.8125 27C16.8125 27.3978 16.6545 27.7794 16.3732 28.0607C16.0919 28.342 15.7103 28.5 15.3125 28.5ZM15.3125 22.5H13.8125C13.4147 22.5 13.0331 22.342 12.7518 22.0607C12.4705 21.7794 12.3125 21.3978 12.3125 21C12.3125 20.6022 12.4705 20.2206 12.7518 19.9393C13.0331 19.658 13.4147 19.5 13.8125 19.5H15.3125C15.7103 19.5 16.0919 19.658 16.3732 19.9393C16.6545 20.2206 16.8125 20.6022 16.8125 21C16.8125 21.3978 16.6545 21.7794 16.3732 22.0607C16.0919 22.342 15.7103 22.5 15.3125 22.5ZM15.3125 16.5H13.8125C13.4147 16.5 13.0331 16.342 12.7518 16.0607C12.4705 15.7794 12.3125 15.3978 12.3125 15C12.3125 14.6022 12.4705 14.2206 12.7518 13.9393C13.0331 13.658 13.4147 13.5 13.8125 13.5H15.3125C15.7103 13.5 16.0919 13.658 16.3732 13.9393C16.6545 14.2206 16.8125 14.6022 16.8125 15C16.8125 15.3978 16.6545 15.7794 16.3732 16.0607C16.0919 16.342 15.7103 16.5 15.3125 16.5ZM15.3125 10.5H13.8125C13.4147 10.5 13.0331 10.342 12.7518 10.0607C12.4705 9.77936 12.3125 9.39782 12.3125 9C12.3125 8.60218 12.4705 8.22064 12.7518 7.93934C13.0331 7.65804 13.4147 7.5 13.8125 7.5H15.3125C15.7103 7.5 16.0919 7.65804 16.3732 7.93934C16.6545 8.22064 16.8125 8.60218 16.8125 9C16.8125 9.39782 16.6545 9.77936 16.3732 10.0607C16.0919 10.342 15.7103 10.5 15.3125 10.5ZM28.8125 7.5H24.3125V36H28.8125C30.8009 35.9976 32.7072 35.2067 34.1132 33.8007C35.5192 32.3947 36.3101 30.4884 36.3125 28.5V15C36.3101 13.0116 35.5192 11.1053 34.1132 9.69933C32.7072 8.29332 30.8009 7.50238 28.8125 7.5ZM30.3125 28.5C30.0158 28.5 29.7258 28.412 29.4791 28.2472C29.2325 28.0824 29.0402 27.8481 28.9267 27.574C28.8131 27.2999 28.7834 26.9983 28.8413 26.7074C28.8992 26.4164 29.0421 26.1491 29.2518 25.9393C29.4616 25.7296 29.7289 25.5867 30.0199 25.5288C30.3108 25.4709 30.6124 25.5006 30.8865 25.6142C31.1606 25.7277 31.3949 25.92 31.5597 26.1666C31.7245 26.4133 31.8125 26.7033 31.8125 27C31.8125 27.3978 31.6545 27.7794 31.3732 28.0607C31.0919 28.342 30.7103 28.5 30.3125 28.5ZM30.3125 22.5C30.0158 22.5 29.7258 22.412 29.4791 22.2472C29.2325 22.0824 29.0402 21.8481 28.9267 21.574C28.8131 21.2999 28.7834 20.9983 28.8413 20.7074C28.8992 20.4164 29.0421 20.1491 29.2518 19.9393C29.4616 19.7296 29.7289 19.5867 30.0199 19.5288C30.3108 19.4709 30.6124 19.5006 30.8865 19.6142C31.1606 19.7277 31.3949 19.92 31.5597 20.1666C31.7245 20.4133 31.8125 20.7033 31.8125 21C31.8125 21.3978 31.6545 21.7794 31.3732 22.0607C31.0919 22.342 30.7103 22.5 30.3125 22.5ZM30.3125 16.5C30.0158 16.5 29.7258 16.412 29.4791 16.2472C29.2325 16.0824 29.0402 15.8481 28.9267 15.574C28.8131 15.2999 28.7834 14.9983 28.8413 14.7074C28.8992 14.4164 29.0421 14.1491 29.2518 13.9393C29.4616 13.7296 29.7289 13.5867 30.0199 13.5288C30.3108 13.4709 30.6124 13.5006 30.8865 13.6142C31.1606 13.7277 31.3949 13.92 31.5597 14.1666C31.7245 14.4133 31.8125 14.7033 31.8125 15C31.8125 15.3978 31.6545 15.7794 31.3732 16.0607C31.0919 16.342 30.7103 16.5 30.3125 16.5Z" fill="#B94CD5"/>
</g>
<defs>
<clipPath id="clip0_339_1689">
<rect width="36" height="36" fill="white" transform="translate(0.3125)"/>
</clipPath>
</defs>
</svg>
