<svg width="53" height="53" viewBox="0 0 53 53" fill="none" xmlns="http://www.w3.org/2000/svg">
<g clip-path="url(#clip0_339_1689)">
<path d="M19.875 0H11.0417C8.11323 0 5.30474 1.16332 3.23403 3.23403C1.16332 5.30474 0 8.11323 0 11.0417L0 41.9583C0 43.4083 0.285601 44.8442 0.840497 46.1838C1.39539 47.5234 2.20872 48.7407 3.23403 49.766C5.30474 51.8367 8.11323 53 11.0417 53H30.9167V11.0417C30.9167 9.59165 30.6311 8.15584 30.0762 6.8162C29.5213 5.47657 28.7079 4.25934 27.6826 3.23403C26.6573 2.20872 25.4401 1.39539 24.1005 0.840497C22.7608 0.285601 21.325 0 19.875 0ZM11.0417 41.9583H8.83333C8.24765 41.9583 7.68595 41.7257 7.27181 41.3115C6.85766 40.8974 6.625 40.3357 6.625 39.75C6.625 39.1643 6.85766 38.6026 7.27181 38.1885C7.68595 37.7743 8.24765 37.5417 8.83333 37.5417H11.0417C11.6274 37.5417 12.1891 37.7743 12.6032 38.1885C13.0173 38.6026 13.25 39.1643 13.25 39.75C13.25 40.3357 13.0173 40.8974 12.6032 41.3115C12.1891 41.7257 11.6274 41.9583 11.0417 41.9583ZM11.0417 33.125H8.83333C8.24765 33.125 7.68595 32.8923 7.27181 32.4782C6.85766 32.064 6.625 31.5024 6.625 30.9167C6.625 30.331 6.85766 29.7693 7.27181 29.3551C7.68595 28.941 8.24765 28.7083 8.83333 28.7083H11.0417C11.6274 28.7083 12.1891 28.941 12.6032 29.3551C13.0173 29.7693 13.25 30.331 13.25 30.9167C13.25 31.5024 13.0173 32.064 12.6032 32.4782C12.1891 32.8923 11.6274 33.125 11.0417 33.125ZM11.0417 24.2917H8.83333C8.24765 24.2917 7.68595 24.059 7.27181 23.6449C6.85766 23.2307 6.625 22.669 6.625 22.0833C6.625 21.4976 6.85766 20.9359 7.27181 20.5218C7.68595 20.1077 8.24765 19.875 8.83333 19.875H11.0417C11.6274 19.875 12.1891 20.1077 12.6032 20.5218C13.0173 20.9359 13.25 21.4976 13.25 22.0833C13.25 22.669 13.0173 23.2307 12.6032 23.6449C12.1891 24.059 11.6274 24.2917 11.0417 24.2917ZM11.0417 15.4583H8.83333C8.24765 15.4583 7.68595 15.2257 7.27181 14.8115C6.85766 14.3974 6.625 13.8357 6.625 13.25C6.625 12.6643 6.85766 12.1026 7.27181 11.6885C7.68595 11.2743 8.24765 11.0417 8.83333 11.0417H11.0417C11.6274 11.0417 12.1891 11.2743 12.6032 11.6885C13.0173 12.1026 13.25 12.6643 13.25 13.25C13.25 13.8357 13.0173 14.3974 12.6032 14.8115C12.1891 15.2257 11.6274 15.4583 11.0417 15.4583ZM22.0833 41.9583H19.875C19.2893 41.9583 18.7276 41.7257 18.3135 41.3115C17.8993 40.8974 17.6667 40.3357 17.6667 39.75C17.6667 39.1643 17.8993 38.6026 18.3135 38.1885C18.7276 37.7743 19.2893 37.5417 19.875 37.5417H22.0833C22.669 37.5417 23.2307 37.7743 23.6449 38.1885C24.059 38.6026 24.2917 39.1643 24.2917 39.75C24.2917 40.3357 24.059 40.8974 23.6449 41.3115C23.2307 41.7257 22.669 41.9583 22.0833 41.9583ZM22.0833 33.125H19.875C19.2893 33.125 18.7276 32.8923 18.3135 32.4782C17.8993 32.064 17.6667 31.5024 17.6667 30.9167C17.6667 30.331 17.8993 29.7693 18.3135 29.3551C18.7276 28.941 19.2893 28.7083 19.875 28.7083H22.0833C22.669 28.7083 23.2307 28.941 23.6449 29.3551C24.059 29.7693 24.2917 30.331 24.2917 30.9167C24.2917 31.5024 24.059 32.064 23.6449 32.4782C23.2307 32.8923 22.669 33.125 22.0833 33.125ZM22.0833 24.2917H19.875C19.2893 24.2917 18.7276 24.059 18.3135 23.6449C17.8993 23.2307 17.6667 22.669 17.6667 22.0833C17.6667 21.4976 17.8993 20.9359 18.3135 20.5218C18.7276 20.1077 19.2893 19.875 19.875 19.875H22.0833C22.669 19.875 23.2307 20.1077 23.6449 20.5218C24.059 20.9359 24.2917 21.4976 24.2917 22.0833C24.2917 22.669 24.059 23.2307 23.6449 23.6449C23.2307 24.059 22.669 24.2917 22.0833 24.2917ZM22.0833 15.4583H19.875C19.2893 15.4583 18.7276 15.2257 18.3135 14.8115C17.8993 14.3974 17.6667 13.8357 17.6667 13.25C17.6667 12.6643 17.8993 12.1026 18.3135 11.6885C18.7276 11.2743 19.2893 11.0417 19.875 11.0417H22.0833C22.669 11.0417 23.2307 11.2743 23.6449 11.6885C24.059 12.1026 24.2917 12.6643 24.2917 13.25C24.2917 13.8357 24.059 14.3974 23.6449 14.8115C23.2307 15.2257 22.669 15.4583 22.0833 15.4583ZM41.9583 11.0417H35.3333V53H41.9583C44.8857 52.9965 47.6921 51.8321 49.7621 49.7621C51.8321 47.6921 52.9965 44.8857 53 41.9583V22.0833C52.9965 19.156 51.8321 16.3495 49.7621 14.2796C47.6921 12.2096 44.8857 11.0452 41.9583 11.0417ZM44.1667 41.9583C43.7299 41.9583 43.3029 41.8288 42.9398 41.5862C42.5766 41.3435 42.2936 40.9986 42.1264 40.5951C41.9593 40.1916 41.9156 39.7475 42.0008 39.3192C42.086 38.8908 42.2963 38.4973 42.6051 38.1885C42.914 37.8796 43.3075 37.6693 43.7358 37.5841C44.1642 37.4989 44.6082 37.5426 45.0118 37.7098C45.4153 37.8769 45.7602 38.16 46.0028 38.5231C46.2455 38.8863 46.375 39.3132 46.375 39.75C46.375 40.3357 46.1423 40.8974 45.7282 41.3115C45.3141 41.7257 44.7524 41.9583 44.1667 41.9583ZM44.1667 33.125C43.7299 33.125 43.3029 32.9955 42.9398 32.7528C42.5766 32.5102 42.2936 32.1653 42.1264 31.7618C41.9593 31.3582 41.9156 30.9142 42.0008 30.4858C42.086 30.0575 42.2963 29.664 42.6051 29.3551C42.914 29.0463 43.3075 28.836 43.7358 28.7508C44.1642 28.6656 44.6082 28.7093 45.0118 28.8764C45.4153 29.0436 45.7602 29.3266 46.0028 29.6898C46.2455 30.0529 46.375 30.4799 46.375 30.9167C46.375 31.5024 46.1423 32.064 45.7282 32.4782C45.3141 32.8923 44.7524 33.125 44.1667 33.125ZM44.1667 24.2917C43.7299 24.2917 43.3029 24.1621 42.9398 23.9195C42.5766 23.6768 42.2936 23.3319 42.1264 22.9284C41.9593 22.5249 41.9156 22.0809 42.0008 21.6525C42.086 21.2241 42.2963 20.8306 42.6051 20.5218C42.914 20.213 43.3075 20.0026 43.7358 19.9174C44.1642 19.8322 44.6082 19.876 45.0118 20.0431C45.4153 20.2102 45.7602 20.4933 46.0028 20.8564C46.2455 21.2196 46.375 21.6466 46.375 22.0833C46.375 22.669 46.1423 23.2307 45.7282 23.6449C45.3141 24.059 44.7524 24.2917 44.1667 24.2917Z" fill="#B94CD5"/>
</g>
<defs>
<clipPath id="clip0_339_1689">
<rect width="53" height="53" fill="white"/>
</clipPath>
</defs>
</svg>
