<svg width="53" height="53" viewBox="0 0 53 53" fill="none" xmlns="http://www.w3.org/2000/svg">
<path d="M35.2661 2.32715L35.5103 2.34082C35.7533 2.36857 35.9905 2.4381 36.2114 2.5459C36.5057 2.68954 36.7638 2.89818 36.9653 3.15625C37.1668 3.41427 37.3065 3.71495 37.3745 4.03516C37.4425 4.35542 37.4371 4.68719 37.3579 5.00488V5.00586C37.2773 5.32769 37.5203 5.63953 37.8521 5.63965H41.8911C42.463 5.63965 43.0112 5.86711 43.4155 6.27148C43.8199 6.67586 44.0474 7.22403 44.0474 7.7959V47.5459C44.0474 48.1178 43.8199 48.6659 43.4155 49.0703C43.0112 49.4747 42.463 49.7021 41.8911 49.7021H12.0786C11.5067 49.7021 10.9586 49.4747 10.5542 49.0703C10.1498 48.6659 9.92237 48.1178 9.92236 47.5459V7.7959C9.92236 7.22403 10.1498 6.67586 10.5542 6.27148C10.9586 5.86711 11.5067 5.63965 12.0786 5.63965H16.1177C16.4494 5.6395 16.6925 5.32767 16.6118 5.00586V5.00488C16.5326 4.68719 16.5272 4.35543 16.5952 4.03516C16.6633 3.71495 16.8029 3.41427 17.0044 3.15625C17.206 2.89817 17.464 2.68954 17.7583 2.5459C18.0526 2.40225 18.3761 2.32724 18.7036 2.32715H35.2661ZM22.8442 31.4834C22.663 31.4834 22.5161 31.6303 22.5161 31.8115C22.5161 32.545 21.9215 33.1396 21.188 33.1396H18.7036C18.065 33.1396 17.5474 33.6573 17.5474 34.2959C17.5474 34.9345 18.065 35.4521 18.7036 35.4521H21.188C21.9215 35.4522 22.5161 36.0468 22.5161 36.7803C22.5161 36.9615 22.663 37.1084 22.8442 37.1084H24.5005C24.6817 37.1084 24.8286 36.9615 24.8286 36.7803C24.8286 36.0468 25.4232 35.4521 26.1567 35.4521H35.2661C35.9047 35.4521 36.4224 34.9345 36.4224 34.2959C36.4224 33.6573 35.9047 33.1397 35.2661 33.1396H26.1567C25.4232 33.1396 24.8286 32.545 24.8286 31.8115C24.8286 31.6303 24.6817 31.4834 24.5005 31.4834H22.8442ZM29.4692 21.5459C29.288 21.5459 29.1411 21.6928 29.1411 21.874C29.1411 22.6075 28.5465 23.2021 27.813 23.2021H18.7036C18.065 23.2021 17.5474 23.7198 17.5474 24.3584C17.5474 24.997 18.065 25.5146 18.7036 25.5146H27.813C28.5465 25.5147 29.1411 26.1093 29.1411 26.8428C29.1411 27.024 29.288 27.1709 29.4692 27.1709H31.1255C31.3067 27.1709 31.4536 27.024 31.4536 26.8428C31.4536 26.1093 32.0482 25.5146 32.7817 25.5146H35.2661C35.9047 25.5146 36.4224 24.997 36.4224 24.3584C36.4224 23.7198 35.9047 23.2022 35.2661 23.2021H32.7817C32.0482 23.2021 31.4536 22.6075 31.4536 21.874C31.4536 21.6928 31.3067 21.5459 31.1255 21.5459H29.4692ZM22.9448 6.63965C22.1927 6.63968 21.6405 7.34651 21.8228 8.07617C21.9514 8.59088 22.4143 8.95212 22.9448 8.95215H31.0249C31.5554 8.95211 32.0183 8.59087 32.147 8.07617C32.3292 7.34652 31.777 6.63971 31.0249 6.63965H22.9448Z" fill="#B94CD5" stroke="#B94CD5"/>
</svg>
