<?xml version="1.0" standalone="no"?>
<!DOCTYPE svg PUBLIC "-//W3C//DTD SVG 20010904//EN"
 "http://www.w3.org/TR/2001/REC-SVG-20010904/DTD/svg10.dtd">
<svg version="1.0" xmlns="http://www.w3.org/2000/svg"
 width="197.000000pt" height="259.000000pt" viewBox="0 0 197.000000 259.000000"
 preserveAspectRatio="xMidYMid meet">

<g transform="translate(0.000000,259.000000) scale(0.100000,-0.100000)"
fill="#754EA0" stroke="none">
<path d="M438 2581 c-363 -5 -399 -8 -415 -24 -17 -17 -18 -83 -21 -1260 -1
-683 0 -1252 3 -1264 l5 -23 228 0 c346 0 325 -29 332 462 5 343 6 358 26 385
12 15 35 36 52 46 39 23 169 36 348 37 292 0 429 33 591 140 123 81 261 226
307 322 51 108 70 209 69 363 -2 273 -90 458 -297 621 -90 71 -248 154 -341
179 -75 19 -337 24 -887 16z m685 -525 c26 -9 96 -44 155 -77 152 -85 252
-122 330 -123 73 -1 73 4 -1 -114 -110 -176 -253 -313 -402 -387 -149 -75
-335 -85 -461 -26 -74 35 -174 103 -218 149 l-29 31 57 59 c111 117 216 145
359 98 119 -39 164 -42 241 -16 36 12 68 25 71 30 3 4 -30 10 -73 12 -79 3
-84 5 -217 77 -57 31 -64 33 -150 29 -79 -3 -99 -7 -165 -39 -93 -45 -206
-129 -265 -198 -50 -59 -54 -52 -25 40 48 155 214 370 334 431 68 35 152 48
286 44 85 -2 140 -8 173 -20z"/>
</g>
</svg>
