<svg width="68" height="68" viewBox="0 0 68 68" fill="none" xmlns="http://www.w3.org/2000/svg">
<path fill-rule="evenodd" clip-rule="evenodd" d="M39.9065 7.47917C39.9065 7.29407 39.833 7.11655 39.7021 6.98567C39.5712 6.85478 39.3937 6.78125 39.2086 6.78125H19.667C17.6309 6.78125 15.6782 7.59008 14.2384 9.02982C12.7987 10.4695 11.9899 12.4222 11.9899 14.4583V53.5417C11.9899 55.5778 12.7987 57.5305 14.2384 58.9702C15.6782 60.4099 17.6309 61.2188 19.667 61.2188H47.5836C49.6197 61.2188 51.5724 60.4099 53.0121 58.9702C54.4519 57.5305 55.2607 55.5778 55.2607 53.5417V26.0354C55.2607 25.8503 55.1872 25.6728 55.0563 25.5419C54.9254 25.411 54.7479 25.3375 54.5628 25.3375H42.0003C41.445 25.3375 40.9124 25.1169 40.5198 24.7242C40.1271 24.3316 39.9065 23.799 39.9065 23.2437V7.47917ZM42.0003 34.6979C42.5556 34.6979 43.0881 34.9185 43.4808 35.3112C43.8734 35.7038 44.094 36.2364 44.094 36.7917C44.094 37.347 43.8734 37.8795 43.4808 38.2722C43.0881 38.6648 42.5556 38.8854 42.0003 38.8854H25.2503C24.695 38.8854 24.1624 38.6648 23.7698 38.2722C23.3771 37.8795 23.1565 37.347 23.1565 36.7917C23.1565 36.2364 23.3771 35.7038 23.7698 35.3112C24.1624 34.9185 24.695 34.6979 25.2503 34.6979H42.0003ZM42.0003 45.8646C42.5556 45.8646 43.0881 46.0852 43.4808 46.4778C43.8734 46.8705 44.094 47.403 44.094 47.9583C44.094 48.5136 43.8734 49.0462 43.4808 49.4388C43.0881 49.8315 42.5556 50.0521 42.0003 50.0521H25.2503C24.695 50.0521 24.1624 49.8315 23.7698 49.4388C23.3771 49.0462 23.1565 48.5136 23.1565 47.9583C23.1565 47.403 23.3771 46.8705 23.7698 46.4778C24.1624 46.0852 24.695 45.8646 25.2503 45.8646H42.0003Z" fill="#B94CD5"/>
<path d="M44.094 8.38367C44.094 7.87001 44.6328 7.54338 45.032 7.86442C45.3707 8.13801 45.6713 8.45626 45.9337 8.81917L54.345 20.5358C54.5348 20.8038 54.3282 21.15 53.9988 21.15H44.7919C44.6068 21.15 44.4293 21.0764 44.2984 20.9455C44.1675 20.8147 44.094 20.6371 44.094 20.452V8.38367Z" fill="#B94CD5"/>
</svg>
