<svg width="63" height="46" viewBox="0 0 63 46" fill="none" xmlns="http://www.w3.org/2000/svg">
<path d="M62.0418 7.25H53.5586C51.7306 7.25 50.815 7.25 49.9542 6.992C49.0934 6.734 48.33 6.236 46.8092 5.234C44.5279 3.734 41.9242 2.024 40.6315 1.634C39.3388 1.25 37.967 1.25 35.2235 1.25C31.4944 1.25 29.0915 1.25 27.4125 1.934C25.7395 2.621 24.4195 3.92 21.7793 6.524L19.4585 8.81C18.8654 9.398 18.5673 9.692 18.3848 9.98C18.0525 10.5038 17.8923 11.116 17.926 11.7329C17.9598 12.3499 18.1859 12.9415 18.5734 13.427C18.7863 13.694 19.1148 13.955 19.7687 14.474C22.1899 16.394 25.6787 16.202 27.8717 14.027L31.6252 10.304H34.6668L52.9168 28.412C53.722 29.2151 54.1737 30.299 54.1737 31.4285C54.1737 32.558 53.722 33.6419 52.9168 34.445C52.5183 34.8405 52.0443 35.1543 51.5223 35.3685C51.0003 35.5826 50.4405 35.6929 49.8752 35.6929C49.3098 35.6929 48.75 35.5826 48.228 35.3685C47.706 35.1543 47.2321 34.8405 46.8335 34.445L45.3127 32.939M45.3127 32.939L36.1877 23.885M45.3127 32.939C46.1179 33.7421 46.5695 34.826 46.5695 35.9555C46.5695 37.085 46.1179 38.1689 45.3127 38.972C44.9141 39.3675 44.4402 39.6813 43.9182 39.8955C43.3961 40.1096 42.8364 40.2199 42.271 40.2199C41.7056 40.2199 41.1458 40.1096 40.6238 39.8955C40.1018 39.6813 39.6279 39.3675 39.2293 38.972L36.1877 35.954M36.1877 35.954C36.9938 36.7572 37.446 37.8418 37.446 38.972C37.446 40.1022 36.9938 41.1868 36.1877 41.99C35.7891 42.3855 35.3152 42.6993 34.7932 42.9135C34.2711 43.1276 33.7114 43.2379 33.146 43.2379C32.5806 43.2379 32.0208 43.1276 31.4988 42.9135C30.9768 42.6993 30.5029 42.3855 30.1043 41.99L25.5418 37.463M36.1877 35.954L30.1043 29.954M25.5418 37.463L24.021 35.954M25.5418 37.463C26.348 38.2662 26.8002 39.3508 26.8002 40.481C26.8002 41.6112 26.348 42.6958 25.5418 43.499C25.1433 43.8945 24.6693 44.2083 24.1473 44.4225C23.6253 44.6366 23.0655 44.7469 22.5002 44.7469C21.9348 44.7469 21.375 44.6366 20.853 44.4225C20.331 44.2083 19.8571 43.8945 19.4585 43.499L10.8688 34.853C9.10466 33.077 8.22258 32.186 7.09108 31.718C5.96262 31.25 4.70033 31.25 2.17879 31.25H1.2085" stroke="#B94CD5" stroke-width="1.5" stroke-linecap="round" stroke-linejoin="round"/>
<path d="M62.0418 31.25H54.4377M20.9793 7.25H1.2085" stroke="#B94CD5" stroke-width="1.5" stroke-linecap="round"/>
</svg>
