<svg width="62" height="60" viewBox="0 0 62 60" fill="none" xmlns="http://www.w3.org/2000/svg">
<path fill-rule="evenodd" clip-rule="evenodd" d="M21.094 3.75C20.8044 3.75008 20.5187 3.81504 20.2585 3.93995C19.9983 4.06486 19.7704 4.24644 19.5922 4.4709C19.4139 4.69536 19.29 4.95681 19.2299 5.2354C19.1697 5.51399 19.1749 5.80241 19.2449 6.07875L19.6071 7.5H13.469C12.9634 7.5 12.4786 7.69754 12.1211 8.04918C11.7636 8.40081 11.5627 8.87772 11.5627 9.375V54.375C11.5627 54.8723 11.7636 55.3492 12.1211 55.7008C12.4786 56.0525 12.9634 56.25 13.469 56.25H47.7815C48.2871 56.25 48.7719 56.0525 49.1294 55.7008C49.4869 55.3492 49.6877 54.8723 49.6877 54.375V9.375C49.6877 8.87772 49.4869 8.40081 49.1294 8.04918C48.7719 7.69754 48.2871 7.5 47.7815 7.5H41.6434L42.0056 6.07875C42.0756 5.80241 42.0808 5.51399 42.0206 5.2354C41.9604 4.95681 41.8365 4.69536 41.6583 4.4709C41.4801 4.24644 41.2522 4.06486 40.992 3.93995C40.7318 3.81504 40.446 3.75008 40.1565 3.75H21.094ZM23.534 7.5H37.7165L36.7634 11.25H24.4871L23.534 7.5ZM32.5315 24.375V26.25H19.1877V30H32.5315V31.875H36.344V30H42.0627V26.25H36.344V24.375H32.5315ZM24.9065 35.625V37.5H19.1877V41.25H24.9065V43.125H28.719V41.25H42.0627V37.5H28.719V35.625H24.9065Z" fill="#B94CD5"/>
</svg>
