<svg width="47" height="39" viewBox="0 0 47 39" fill="none" xmlns="http://www.w3.org/2000/svg">
<mask id="mask0_516_322" style="mask-type:luminance" maskUnits="userSpaceOnUse" x="0" y="3" width="50" height="36">
<path d="M7.11024 37.14C-0.369756 29.6812 -0.369756 17.5687 7.11024 10.11C14.569 2.63 26.6815 2.63 34.1402 10.11C41.6202 17.5687 41.6202 29.6812 34.1402 37.14" stroke="white" stroke-width="2" stroke-linecap="round" stroke-linejoin="round"/>
<path d="M25.1155 33.2545C19.7973 35.7344 13.4756 33.4335 10.9957 28.1153C8.51574 22.7971 10.8167 16.4754 16.1349 13.9955C21.4531 11.5156 49.5138 10.1541 49.5138 10.1541C49.5138 10.1541 30.4337 30.7746 25.1155 33.2545Z" fill="black"/>
<path d="M23.3194 29.4027C20.1286 30.8906 16.3355 29.5102 14.8475 26.3192C13.3595 23.1282 14.7402 19.3352 17.931 17.8473C21.1221 16.3593 41.8102 13.7463 41.8102 13.7463C41.8102 13.7463 26.5104 27.9147 23.3194 29.4027Z" fill="white"/>
</mask>
<g mask="url(#mask0_516_322)">
<path d="M46.1252 -4H-4.87476V47H46.1252V-4Z" fill="#B94CD5"/>
</g>
</svg>
